<?xml version="1.0" encoding="utf-8"?>
<!-- Generator: Adobe Illustrator 13.0.0, SVG Export Plug-In . SVG Version: 6.00 Build 14948)  -->
<svg version="1.2" baseProfile="tiny" id="Layer_1" xmlns="http://www.w3.org/2000/svg" xmlns:xlink="http://www.w3.org/1999/xlink"
	 x="0px" y="0px" width="200px" height="200px" viewBox="0 0 200 200" xml:space="preserve">
<path fill="#0976E0" d="M200,188c0,6.627-5.373,12-12,12H12c-6.627,0-12-5.373-12-12V12C0,5.373,5.373,0,12,0h176
	c6.627,0,12,5.373,12,12V188z"/>
<line fill="none" stroke="#FEFEFE" stroke-width="10" stroke-linecap="round" stroke-linejoin="round" x1="40" y1="165" x2="160" y2="165"/>
<line fill="none" stroke="#FEFEFE" stroke-width="10" stroke-linecap="round" stroke-linejoin="round" x1="38" y1="165" x2="80" y2="65"/>
<line fill="none" stroke="#FEFEFE" stroke-width="10" stroke-linecap="round" stroke-linejoin="round" x1="162" y1="165" x2="120" y2="65"/>
<polyline fill="none" stroke="#FEFEFE" stroke-width="10" stroke-linecap="round" stroke-linejoin="round" points="120,63 120,33 
	80,33 80,63 "/>
<line fill="none" stroke="#FEFEFE" stroke-width="10" stroke-linecap="round" stroke-linejoin="round" x1="105" y1="90" x2="125" y2="90"/>
<line fill="none" stroke="#FEFEFE" stroke-width="10" stroke-linecap="round" stroke-linejoin="round" x1="105" y1="115" x2="136" y2="115"/>
<line fill="none" stroke="#FEFEFE" stroke-width="10" stroke-linecap="round" stroke-linejoin="round" x1="105" y1="140" x2="148.667" y2="140"/>
</svg>
