<?xml version="1.0" encoding="utf-8"?>
<!-- Generator: Adobe Illustrator 13.0.0, SVG Export Plug-In . SVG Version: 6.00 Build 14948)  -->
<svg version="1.2" baseProfile="tiny" id="Layer_1" xmlns="http://www.w3.org/2000/svg" xmlns:xlink="http://www.w3.org/1999/xlink"
	 x="0px" y="0px" width="200px" height="200px" viewBox="0 0 200 200" xml:space="preserve">
<path fill="#3498DB" d="M200,188c0,6.627-5.373,12-12,12H12c-6.627,0-12-5.373-12-12V12C0,5.373,5.373,0,12,0h176
	c6.627,0,12,5.373,12,12V188z"/>
<line fill="none" stroke="#FEFEFE" stroke-width="10" stroke-linecap="round" stroke-linejoin="round" x1="24.5" y1="50.5" x2="99.5" y2="80.5"/>
<line fill="none" stroke="#FEFEFE" stroke-width="10" stroke-linecap="round" stroke-linejoin="round" x1="99.5" y1="80.5" x2="174.5" y2="50.5"/>
<line fill="none" stroke="#FEFEFE" stroke-width="10" stroke-linecap="round" stroke-linejoin="round" x1="24.5" y1="50.5" x2="99.5" y2="20.5"/>
<line fill="none" stroke="#FEFEFE" stroke-width="10" stroke-linecap="round" stroke-linejoin="round" x1="99.5" y1="20.5" x2="174.5" y2="50.5"/>
<line fill="none" stroke="#FEFEFE" stroke-width="10" stroke-linecap="round" stroke-linejoin="round" x1="24.5" y1="81.5" x2="99.5" y2="111.5"/>
<line fill="none" stroke="#FEFEFE" stroke-width="10" stroke-linecap="round" stroke-linejoin="round" x1="99.5" y1="111.5" x2="174.5" y2="81.5"/>
<line fill="none" stroke="#FEFEFE" stroke-width="10" stroke-linecap="round" stroke-linejoin="round" x1="24.5" y1="111.5" x2="99.5" y2="141.5"/>
<line fill="none" stroke="#FEFEFE" stroke-width="10" stroke-linecap="round" stroke-linejoin="round" x1="99.5" y1="141.5" x2="174.5" y2="111.5"/>
<line fill="none" stroke="#FEFEFE" stroke-width="10" stroke-linecap="round" stroke-linejoin="round" x1="24.5" y1="139.5" x2="99.5" y2="169.5"/>
<line fill="none" stroke="#FEFEFE" stroke-width="10" stroke-linecap="round" stroke-linejoin="round" x1="99.5" y1="169.5" x2="174.5" y2="139.5"/>
</svg>
