<?xml version="1.0" encoding="utf-8"?>
<svg version="1.2" baseProfile="tiny" id="Layer_1" xmlns="http://www.w3.org/2000/svg" xmlns:xlink="http://www.w3.org/1999/xlink"
	 x="0px" y="0px" width="200px" height="200px" viewBox="0 0 200 200" xml:space="preserve">
<path fill="#3498DB" d="M200,188c0,6.627-5.373,12-12,12H12c-6.627,0-12-5.373-12-12V12C0,5.373,5.373,0,12,0h176
	c6.627,0,12,5.373,12,12V188z"/>
<line fill="none" stroke="#FEFEFE" stroke-width="10" stroke-linecap="round" stroke-linejoin="round" x1="29.5" y1="31.5" x2="69.5" y2="31.5"/>
<line fill="none" stroke="#FEFEFE" stroke-width="10" stroke-linecap="round" stroke-linejoin="round" x1="30" y1="86.5" x2="170" y2="86.5"/>
<line fill="none" stroke="#FEFEFE" stroke-width="10" stroke-linecap="round" stroke-linejoin="round" x1="30" y1="114.5" x2="108" y2="114.5"/>
<line fill="none" stroke="#FEFEFE" stroke-width="10" stroke-linecap="round" stroke-linejoin="round" x1="30" y1="142.5" x2="108" y2="142.5"/>
<line fill="none" stroke="#FEFEFE" stroke-width="10" stroke-linecap="round" stroke-linejoin="round" x1="30" y1="59.5" x2="170" y2="59.5"/>
<line fill="none" stroke="#FEFEFE" stroke-width="10" stroke-linecap="round" stroke-linejoin="round" x1="30" y1="170.5" x2="170" y2="170.5"/>
<line fill="none" stroke="#FEFEFE" stroke-width="10" stroke-linecap="round" stroke-linejoin="round" x1="128" y1="114.5" x2="169" y2="114.5"/>
<line fill="none" stroke="#FEFEFE" stroke-width="10" stroke-linecap="round" stroke-linejoin="round" x1="128" y1="142.5" x2="169" y2="142.5"/>
<line fill="none" stroke="#FEFEFE" stroke-width="10" stroke-linecap="round" stroke-linejoin="round" x1="128" y1="114.5" x2="128" y2="142.5"/>
<line fill="none" stroke="#FEFEFE" stroke-width="10" stroke-linecap="round" stroke-linejoin="round" x1="169" y1="114.5" x2="169" y2="142.5"/>
</svg>
